# xmcd
#
# Track frame offsets: 
#        150
#        31009
#        74070
#        104989
#        132067
#        136202
#        162748
#        175405
#        223612
#        296762
#        337430
#
# Disc length: 4731 seconds
#
# Revision: 0
# Processed by: cddbd v1.5.2PL0 Copyright (c) Steve Scherf et al.
# Submitted via: ExactAudioCopy v0.95b3
#
DISCID=bd12790b
DTITLE=Jimi Hendrix  - Kick Out The Jams - Disc 5 - 156  FLAC
DYEAR=1900
DGENRE=
TTITLE0=Fast Jam
TTITLE1=It's My Own Fault
TTITLE2=Intros 2
TTITLE3=Interview
TTITLE4=Tuning Up
TTITLE5=Jam
TTITLE6=Outro
TTITLE7=The Dance
TTITLE8=Sundance
TTITLE9=Earth Blues
TTITLE10=The Star Spangled Banner
EXTD=
EXTT0=
EXTT1=
EXTT2=
EXTT3=
EXTT4=
EXTT5=
EXTT6=
EXTT7=
EXTT8=
EXTT9=
EXTT10=
PLAYORDER=
